<svg width="20" height="21" viewBox="0 0 20 21" fill="none" xmlns="http://www.w3.org/2000/svg">
<path d="M10 5.86658V8.64158" stroke="#444750" stroke-width="1.25" stroke-miterlimit="10" stroke-linecap="round"/>
<path d="M10.0166 2.16663C6.94992 2.16663 4.46658 4.64996 4.46658 7.71663V9.46663C4.46658 10.0333 4.23325 10.8833 3.94158 11.3666L2.88325 13.1333C2.23325 14.225 2.68325 15.4416 3.88325 15.8416C7.86658 17.1666 12.1749 17.1666 16.1582 15.8416C17.2832 15.4666 17.7666 14.15 17.1582 13.1333L16.0999 11.3666C15.8082 10.8833 15.5749 10.025 15.5749 9.46663V7.71663C15.5666 4.66663 13.0666 2.16663 10.0166 2.16663Z" stroke="#444750" stroke-width="1.25" stroke-miterlimit="10" stroke-linecap="round"/>
<path d="M12.7749 16.1833C12.7749 17.7083 11.5249 18.9583 9.99985 18.9583C9.24152 18.9583 8.54152 18.6417 8.04152 18.1417C7.54152 17.6417 7.22485 16.9417 7.22485 16.1833" stroke="#444750" stroke-width="1.25" stroke-miterlimit="10"/>
<rect x="11.6666" y="1.33333" width="7.5" height="7.5" rx="3.75" fill="#F57600"/>
<rect x="11.6666" y="1.33333" width="7.5" height="7.5" rx="3.75" stroke="white" stroke-width="1.66667"/>
</svg>
